# xmcd
#
# Track frame offsets:
#	150
#	13727
#	26215
#	38247
#	50870
#	65307
#	75807
#	89002
#	103862
#	116760
#	144670
#	156267
#	166495
#	178010
#	190660
#	205497
#	217825
#	229740
#	239452
#	253480
#
# Disc length: 3638
#
# Revision: 2
# Processed by: cddbd v1.5.1PL0 Copyright (c) Steve Scherf et al.
# Submitted via: EasyCDDAExtractor 6.0.0.1
# Normalized: r1:DSETVAR1
#
DISCID=240e3414
DTITLE=Various Artist - I Juat Want to Make Love to You
DYEAR=1997
DGENRE=Blues
TTITLE0=John Lee Hooker - One Bourbon, One Scotch, One Beer
TTITLE1=Bo Diddley - Roadrunner
TTITLE2=Chuck Berry - You Never Can Tell
TTITLE3=Jimmy Rogers - That's All Right
TTITLE4=Buddy Guy - My Time After Awhile
TTITLE5=Clarence "Frogman" - Don't Know How i Love You (But i Do)
TTITLE6=Fontella Bass - Recue Me
TTITLE7=Ramsey Lewis Trio - The "In" Crowd
TTITLE8=Sugar Pie Desanto - Souful Dress
TTITLE9=The Dells - Stay In My Corner
TTITLE10=The Radiants - Voice Your Choice
TTITLE11=Elmore James - Talk to Me Baby
TTITLE12=Irima Thomas - Good to Me
TTITLE13=Jackie Breston and His Delta Kings - Rocket 88
TTITLE14=Jackie Ross - Selfish One
TTITLE15=Little Walter and His Night Cats - Juke
TTITLE16=Little Milton - Grits Ain't Groceries
TTITLE17=Willie Dixon - 29 Ways
TTITLE18=Sonny Boy Williamson - Help Me
TTITLE19=Muddy Waters - I Just Want to Make Love to You
EXTD=
EXTT0=
EXTT1=
EXTT2=
EXTT3=
EXTT4=
EXTT5=
EXTT6=
EXTT7=
EXTT8=
EXTT9=
EXTT10=
EXTT11=
EXTT12=
EXTT13=
EXTT14=
EXTT15=
EXTT16=
EXTT17=
EXTT18=
EXTT19=
PLAYORDER=
